<svg xmlns="http://www.w3.org/2000/svg" viewBox="0 0 128 128" role="img" aria-label="thanks">
  <path d="M64 104s-28-16.8-38.5-33C17 57.5 21.2 40 36 36c10-2.7 19.1 1.3 24.5 8.8C65.9 37.3 75 33.3 85 36c14.8 4 19 21.5 10.5 35C92 77.2 86.8 83 80.8 88.1" fill="#fecaca" stroke="#ef4444" stroke-width="3" stroke-linejoin="round"/>
  <path d="M66 70c-4-7-12-9-18-5-5.8 3.9-7.1 11.8-3.2 17.6l10.3 15.1 22.7-15.6-11.8-12.1z" fill="#fde68a" stroke="#d97706" stroke-width="3" stroke-linejoin="round"/>
  <path d="M71 60l8.4 12.2" stroke="#d97706" stroke-width="3" stroke-linecap="round"/>
</svg>
